<svg width="6" height="5" viewBox="0 0 6 5" fill="#ffffff" xmlns="http://www.w3.org/2000/svg">
<path d="M2.6235 4.07L0.225498 1.329C-0.0575022 1.0065 0.172498 0.5 0.601998 0.5H5.398C5.49412 0.499918 5.58823 0.527544 5.66905 0.57957C5.74988 0.631597 5.81399 0.705819 5.85372 0.793347C5.89345 0.880875 5.90711 0.977999 5.89306 1.07309C5.87901 1.16818 5.83784 1.2572 5.7745 1.3295L3.3765 4.0695C3.32957 4.1232 3.27169 4.16625 3.20675 4.19574C3.14181 4.22523 3.07132 4.24049 3 4.24049C2.92868 4.24049 2.85818 4.22523 2.79324 4.19574C2.72831 4.16625 2.67043 4.1232 2.6235 4.0695V4.07Z"/>
</svg>
